<?xml version="1.0" standalone="no"?>
<!DOCTYPE svg PUBLIC "-//W3C//DTD SVG 20010904//EN"
 "http://www.w3.org/TR/2001/REC-SVG-20010904/DTD/svg10.dtd">
<svg version="1.0" xmlns="http://www.w3.org/2000/svg"
 width="1080.000000pt" height="1920.000000pt" viewBox="0 0 1080.000000 1920.000000"
 preserveAspectRatio="xMidYMid meet">

<g transform="translate(0.000000,1920.000000) scale(0.100000,-0.100000)"
fill="#000000" stroke="none">
<path d="M5131 14875 c-158 -18 -415 -69 -528 -105 -267 -85 -448 -162 -648
-277 -287 -163 -521 -353 -752 -608 -112 -124 -209 -255 -335 -455 -65 -102
-86 -149 -74 -168 5 -9 210 53 252 76 11 6 37 36 59 67 231 326 445 567 660
742 39 32 89 74 111 94 83 75 351 242 519 324 349 171 660 247 1010 247 242 1
440 -30 675 -104 93 -30 305 -117 370 -153 14 -7 60 -32 104 -55 120 -63 327
-207 471 -329 191 -160 315 -285 450 -451 28 -34 66 -81 85 -105 19 -24 58
-75 85 -114 119 -171 108 -162 246 -208 75 -25 128 -38 133 -33 14 14 -8 76
-49 140 -19 30 -44 73 -56 95 -28 53 -126 189 -212 295 -157 195 -426 441
-638 586 -286 195 -638 352 -964 431 -284 68 -710 98 -974 68z"/>
<path d="M7010 14833 c0 -5 18 -18 40 -31 22 -12 40 -27 40 -32 0 -6 6 -10 13
-10 7 0 26 -12 42 -26 17 -14 77 -59 133 -99 223 -157 541 -467 687 -669 28
-37 62 -82 76 -100 40 -47 172 -262 246 -399 98 -180 145 -288 184 -416 13
-42 209 -247 219 -230 11 17 -51 194 -152 429 -63 149 -261 484 -363 614 -146
187 -443 497 -568 594 -20 15 -71 54 -114 88 -43 33 -114 83 -158 112 -44 28
-91 59 -104 68 -13 9 -53 32 -90 52 -36 19 -77 41 -91 48 -28 16 -40 17 -40 7z"/>
<path d="M3685 14780 c-16 -11 -44 -26 -62 -35 -18 -9 -37 -23 -44 -31 -6 -8
-15 -14 -19 -14 -8 0 -123 -77 -225 -150 -104 -76 -377 -323 -464 -421 -327
-369 -525 -694 -682 -1117 -47 -129 -59 -182 -40 -182 16 0 146 140 173 187
15 26 34 68 43 94 34 105 168 374 263 529 200 326 437 602 727 850 99 84 237
190 272 209 12 6 34 23 49 36 15 14 30 25 33 25 3 0 12 9 19 20 16 26 -1 26
-43 0z"/>
<path d="M4830 13360 c-13 -25 2 -32 118 -53 101 -19 127 -35 155 -95 l22 -47
0 -1165 0 -1165 -24 -59 c-20 -50 -29 -61 -66 -77 -24 -11 -71 -22 -104 -25
-74 -8 -101 -24 -85 -51 11 -17 43 -18 572 -21 550 -2 561 -2 572 18 15 29
-20 46 -110 54 -41 4 -100 12 -130 19 -49 11 -58 17 -87 60 -23 35 -34 64 -40
114 -4 38 -8 565 -8 1173 0 1196 -2 1153 54 1214 33 35 57 45 151 60 70 11 75
14 75 36 l0 25 -527 3 c-519 2 -527 2 -538 -18z"/>
<path d="M7530 13218 c0 -14 62 -53 125 -79 79 -33 186 -95 233 -135 30 -26
65 -73 96 -130 52 -94 117 -187 139 -201 21 -13 117 -149 128 -182 6 -17 15
-31 20 -31 4 0 15 -23 23 -51 9 -28 23 -57 32 -64 19 -14 12 -65 -9 -65 -21 0
-138 132 -195 220 -66 102 -142 184 -237 254 -79 59 -96 68 -115 56 -10 -6 -4
-27 28 -91 22 -46 53 -118 69 -159 73 -198 154 -273 371 -346 40 -13 87 -34
104 -47 30 -22 68 -84 68 -111 0 -8 6 -21 13 -28 8 -7 17 -42 20 -78 4 -35 13
-67 19 -71 18 -11 21 -4 9 19 -6 12 -11 48 -11 81 0 33 -4 63 -10 66 -5 3 -10
20 -10 36 0 18 4 28 10 24 6 -3 10 -17 10 -30 0 -17 6 -25 22 -27 17 -2 29
-21 55 -83 31 -74 33 -88 33 -191 0 -140 -6 -174 -32 -174 -10 0 -22 10 -27
22 -14 39 -21 2 -27 -154 -7 -151 -14 -198 -33 -198 -5 0 -13 10 -17 23 -4 12
-15 33 -25 46 -11 13 -19 33 -19 45 0 12 -9 38 -20 58 -10 20 -35 79 -55 130
-84 219 -100 257 -137 332 -28 55 -60 100 -110 150 -39 39 -82 86 -95 103 -52
68 -55 17 -13 -217 16 -91 38 -188 48 -217 38 -107 104 -182 206 -233 32 -16
118 -99 154 -148 34 -46 45 -128 45 -312 -1 -151 -3 -171 -27 -240 -15 -41
-33 -95 -40 -120 -8 -25 -21 -58 -29 -75 -22 -43 -26 -110 -7 -110 8 0 18 14
23 30 5 17 17 46 27 66 10 19 22 53 26 74 4 22 15 53 26 70 10 16 18 43 18 59
0 16 7 52 14 80 21 74 42 189 66 366 24 178 54 291 87 336 13 17 23 33 23 37
0 3 18 36 39 74 65 115 86 198 85 338 -1 155 -25 246 -110 421 -35 72 -64 134
-64 138 0 4 -27 63 -60 131 -45 91 -65 123 -75 118 -10 -3 -15 -20 -15 -52 0
-76 -21 -374 -28 -401 -12 -40 -36 -30 -48 20 -6 25 -30 80 -53 122 -22 42
-41 82 -41 90 0 14 -52 148 -90 233 -48 105 -135 213 -213 263 -28 17 -96 46
-152 63 -55 17 -128 39 -162 50 -72 22 -103 24 -103 7z"/>
<path d="M3195 13195 c-282 -54 -383 -115 -488 -295 -32 -56 -94 -199 -114
-264 -8 -26 -29 -80 -48 -120 -37 -79 -52 -136 -37 -136 6 0 16 17 22 38 7 20
20 46 30 57 10 11 24 31 31 45 25 45 83 122 139 185 30 34 77 104 105 155 32
59 66 107 95 132 43 39 170 105 275 143 28 10 60 28 72 41 12 13 31 24 43 24
11 0 20 5 20 10 0 13 -2 13 -145 -15z"/>
<path d="M2375 12809 c-4 -13 -15 -35 -25 -49 -10 -14 -30 -56 -45 -95 -15
-38 -51 -119 -81 -179 -30 -59 -71 -154 -90 -210 -33 -92 -37 -113 -42 -238
-4 -121 -2 -144 18 -209 22 -74 82 -203 98 -213 19 -11 64 -119 88 -206 13
-50 28 -146 33 -213 6 -67 15 -138 21 -157 6 -19 15 -68 20 -108 5 -42 16 -79
25 -88 8 -8 15 -18 15 -22 0 -36 22 -125 33 -137 8 -7 17 -33 21 -57 4 -24 13
-53 21 -64 8 -12 18 -37 23 -55 8 -28 11 -31 17 -16 8 19 -20 115 -50 175 -9
17 -20 59 -25 92 -5 33 -16 67 -26 77 -15 15 -16 38 -12 220 5 192 4 203 -13
203 -27 0 -39 30 -44 112 -10 157 -17 218 -26 218 -5 0 -9 -7 -9 -15 0 -25
-27 -17 -39 13 -6 15 -12 95 -13 177 l-3 150 34 77 c48 112 79 115 82 8 l2
-55 6 63 c5 54 10 67 34 86 15 12 27 27 27 33 0 16 56 56 105 75 201 79 243
103 309 181 52 63 67 91 107 205 17 48 44 113 60 145 47 92 25 101 -71 30 -97
-70 -168 -146 -247 -263 -81 -120 -196 -240 -209 -219 -4 7 -10 29 -14 49 l-5
35 -18 -37 c-10 -20 -21 -40 -26 -42 -14 -9 -21 48 -21 163 -1 58 -5 164 -10
235 -8 127 -21 171 -35 125z"/>
<path d="M2785 12073 c-87 -86 -103 -108 -141 -190 -45 -96 -73 -167 -117
-288 -35 -95 -77 -198 -89 -211 -14 -19 -23 -114 -10 -114 6 0 14 17 18 38 10
57 117 164 204 206 99 47 163 156 200 343 33 170 49 286 41 300 -5 11 -34 -12
-106 -84z"/>
<path d="M8934 11748 c-74 -81 -139 -177 -171 -253 -69 -166 -122 -322 -164
-490 -74 -293 -93 -346 -173 -464 -20 -29 -36 -57 -36 -62 0 -22 75 -6 157 34
115 56 173 115 239 243 65 125 97 255 119 469 15 157 45 336 66 405 6 19 25
65 41 103 48 112 19 118 -78 15z"/>
<path d="M1805 11783 c4 -10 11 -31 16 -46 4 -16 12 -34 18 -40 14 -18 58
-212 70 -312 45 -365 67 -475 119 -596 38 -89 72 -138 130 -190 91 -82 272
-159 272 -115 0 7 -11 28 -25 47 -63 87 -107 187 -135 304 -65 274 -158 564
-222 690 -47 93 -106 172 -171 233 -49 44 -85 57 -72 25z"/>
<path d="M5399 10441 c-19 -10 -65 -28 -100 -39 -79 -24 -149 -67 -195 -119
-32 -35 -76 -113 -88 -156 -5 -17 -15 -18 -118 -12 -62 3 -122 8 -133 10 -11
2 -27 0 -35 -5 -13 -8 -13 -9 0 -14 8 -2 30 -9 49 -15 19 -6 48 -11 65 -11 17
0 44 -7 60 -15 15 -8 39 -15 52 -15 28 0 34 -9 42 -68 9 -59 10 -59 182 -100
150 -35 193 -42 264 -42 44 0 93 4 110 9 69 21 184 53 226 63 58 13 70 26 75
78 2 24 8 47 13 52 9 9 89 28 197 48 117 22 112 29 -15 25 -69 -3 -140 -6
-159 -7 -33 -3 -35 -1 -71 71 -58 113 -101 150 -272 233 -10 4 -27 8 -38 8
-11 0 -29 9 -40 20 -25 25 -27 25 -71 1z"/>
<path d="M3155 10110 c3 -5 25 -10 48 -10 31 0 38 3 27 10 -20 13 -83 13 -75
0z"/>
<path d="M7614 10105 c-4 -10 -20 -15 -45 -15 -21 0 -39 -3 -39 -7 0 -5 -20
-8 -43 -8 -24 0 -55 -5 -68 -12 -13 -6 -69 -19 -123 -28 -55 -9 -106 -20 -115
-24 -9 -5 -41 -12 -71 -16 -30 -4 -65 -11 -77 -16 -21 -8 -132 -25 -226 -34
-27 -3 -53 -8 -58 -11 -32 -19 -654 -85 -849 -90 -58 -1 -128 -10 -180 -24
-87 -22 -125 -30 -240 -51 -55 -9 -79 -9 -150 5 -47 10 -105 23 -130 31 -77
23 -162 37 -245 40 -215 7 -824 71 -854 90 -5 3 -62 12 -126 21 -64 8 -126 19
-138 23 -12 5 -51 12 -87 16 -36 4 -76 12 -90 17 -14 5 -61 16 -105 24 -44 8
-102 21 -130 29 -82 22 -143 32 -155 25 -17 -11 29 -36 80 -45 24 -4 68 -16
99 -26 30 -11 63 -19 74 -19 10 0 33 -6 50 -14 18 -8 40 -16 50 -20 12 -4 17
-16 17 -40 0 -30 -4 -36 -38 -49 -47 -19 -92 -83 -92 -129 0 -55 38 -114 94
-144 45 -25 52 -26 85 -14 61 21 99 57 112 102 21 81 -4 144 -71 178 -30 15
-40 26 -40 45 0 13 4 27 10 30 5 3 44 -3 87 -14 43 -11 138 -32 211 -46 73
-13 140 -29 150 -34 9 -5 49 -12 87 -16 39 -4 108 -15 155 -25 47 -10 112 -21
145 -25 66 -8 85 -18 85 -46 0 -12 -16 -26 -47 -41 -69 -34 -113 -102 -113
-177 1 -31 6 -65 13 -77 24 -42 55 -74 71 -74 9 0 16 -4 16 -9 0 -10 21 -20
69 -31 50 -12 132 21 169 68 68 89 64 187 -10 260 -22 22 -52 42 -68 45 -33 7
-47 35 -23 44 20 8 197 -13 221 -26 9 -5 44 -11 77 -14 52 -4 63 -9 80 -34 28
-40 80 -88 143 -135 41 -31 71 -43 131 -56 107 -22 195 -6 283 52 56 36 79 58
149 139 25 28 49 35 204 57 39 5 91 14 116 18 54 10 69 6 69 -17 0 -12 -13
-22 -39 -30 -48 -14 -90 -62 -114 -129 -17 -47 -17 -51 3 -104 20 -55 54 -94
100 -116 64 -30 80 -32 127 -16 107 37 158 107 150 206 -4 56 -8 64 -53 109
-26 26 -60 51 -76 55 -16 3 -32 13 -35 21 -14 36 31 62 112 64 22 1 58 6 80
11 49 13 153 32 305 58 63 10 149 28 190 39 41 11 91 21 111 21 20 0 50 7 65
15 37 19 63 19 71 -1 10 -25 -13 -61 -44 -67 -41 -9 -76 -66 -77 -126 -1 -64
32 -112 97 -141 51 -24 47 -24 127 14 13 6 35 27 48 46 19 29 23 45 20 87 -6
65 -29 101 -80 121 -37 15 -39 17 -36 56 3 38 6 42 43 53 163 51 241 73 260
73 12 0 28 7 35 15 7 8 25 15 41 15 15 0 31 5 34 10 3 6 15 10 25 10 10 0 22
5 25 10 4 6 -8 10 -30 10 -22 0 -38 -6 -41 -15z"/>
<path d="M2617 9133 c-34 -33 -76 -33 2808 -33 2808 0 2815 0 2815 20 0 20 -7
20 -2808 20 -1545 0 -2812 -3 -2815 -7z"/>
<path d="M3803 8827 c-3 -5 -3 -10 0 -13 3 -3 2545 -6 3256 -4 24 0 41 3 37 8
-10 10 -3287 19 -3293 9z"/>
<path d="M3770 8455 c0 -13 6 -28 13 -32 18 -11 1 -190 -20 -211 -8 -8 -12
-21 -9 -29 3 -8 6 -17 6 -19 0 -2 23 -4 50 -4 54 0 65 14 34 45 -14 14 -15 28
-6 111 7 71 14 98 27 108 14 10 15 16 6 34 -9 18 -21 22 -56 22 -41 0 -45 -2
-45 -25z"/>
<path d="M4866 8468 c-3 -7 -6 -22 -8 -33 -2 -11 -12 -21 -25 -23 -26 -4 -36
-37 -15 -54 8 -7 17 -13 20 -13 3 0 4 -29 3 -65 -2 -54 2 -71 19 -93 22 -28
54 -36 65 -16 4 6 -2 17 -14 25 -22 16 -25 39 -15 118 6 44 9 47 30 42 21 -6
24 -3 24 20 0 17 -6 28 -19 31 -14 3 -21 15 -23 36 -3 33 -34 51 -42 25z"/>
<path d="M5394 8470 c-31 -12 -54 -49 -54 -86 0 -24 9 -40 39 -67 22 -19 49
-40 60 -47 41 -21 14 -60 -42 -60 -20 0 -24 4 -20 20 6 24 -25 40 -38 19 -14
-23 -10 -38 16 -64 15 -16 36 -25 54 -25 112 0 121 97 14 167 -29 20 -53 42
-53 49 0 20 50 54 79 54 l26 -1 -28 -22 c-25 -21 -26 -25 -13 -42 14 -20 15
-20 43 1 37 28 40 57 9 89 -26 26 -55 30 -92 15z"/>
<path d="M6040 8472 c0 -17 39 -44 55 -39 21 9 19 24 -4 37 -24 12 -51 13 -51
2z"/>
<path d="M6734 8461 c-39 -24 -54 -64 -61 -163 -6 -76 -5 -77 25 -107 57 -58
147 -31 140 42 -4 44 -31 47 -43 6 -13 -41 -37 -58 -59 -40 -31 26 -15 182 22
224 26 29 41 21 44 -25 2 -35 7 -44 24 -46 45 -6 39 80 -8 112 -29 21 -46 20
-84 -3z"/>
<path d="M2537 8446 c-9 -13 -52 -44 -96 -70 -45 -26 -88 -58 -97 -71 -16 -24
-15 -27 1 -45 10 -11 33 -22 51 -26 30 -5 32 -8 23 -26 -14 -26 3 -45 50 -58
74 -20 197 34 241 105 34 55 24 86 -31 100 -29 7 -51 -12 -29 -25 16 -10 7
-49 -20 -83 -29 -37 -127 -84 -143 -68 -9 9 0 23 41 62 28 28 52 55 52 60 0
18 -55 8 -95 -16 -43 -27 -70 -31 -80 -14 -10 15 29 52 88 84 77 41 117 74
117 96 0 29 -53 26 -73 -5z"/>
<path d="M3905 8338 c-3 -29 -5 -80 -3 -113 3 -53 5 -60 26 -63 21 -3 22 0 22
60 0 45 6 72 20 96 11 17 22 32 25 32 3 0 3 -37 -1 -83 -5 -69 -4 -85 10 -96
16 -13 51 -8 42 7 -3 4 -1 43 3 86 5 59 4 82 -7 97 -15 22 -42 25 -60 7 -9 -9
-15 -10 -20 -2 -4 6 -17 14 -29 18 -20 6 -22 3 -28 -46z"/>
<path d="M4086 8358 c-23 -145 -13 -211 28 -195 12 5 16 20 16 71 0 54 4 69
24 93 l25 28 -6 -71 c-7 -87 1 -124 26 -124 15 0 19 11 25 61 11 114 9 138
-18 150 -16 8 -29 8 -42 1 -14 -7 -25 -6 -39 4 -28 20 -34 18 -39 -18z"/>
<path d="M4297 8379 c-62 -36 -60 -183 3 -209 62 -26 108 11 117 93 8 65 -2
93 -39 111 -36 19 -56 20 -81 5z m67 -88 c-1 -63 -20 -101 -43 -87 -16 10 -13
93 5 127 24 47 39 31 38 -40z"/>
<path d="M4440 8373 c0 -40 30 -186 41 -200 7 -8 24 -13 38 -11 22 3 30 15 63
102 39 103 38 126 -2 126 -13 0 -24 -18 -41 -66 -20 -57 -25 -63 -30 -43 -4
13 -7 38 -8 56 -1 43 -61 78 -61 36z"/>
<path d="M4683 8380 c-26 -11 -29 -23 -9 -39 11 -9 20 -10 35 -1 12 6 21 9 21
6 0 -2 3 -11 6 -20 5 -12 -1 -16 -23 -16 -69 0 -97 -91 -41 -133 20 -15 35
-18 61 -13 34 6 36 10 47 62 15 71 6 118 -27 144 -28 22 -37 23 -70 10z m43
-145 c-5 -26 -12 -35 -23 -33 -25 5 -26 22 -2 52 26 33 33 28 25 -19z"/>
<path d="M5010 8372 c-25 -20 -42 -91 -33 -140 9 -56 73 -89 123 -62 24 13 40
62 40 126 0 47 -3 55 -29 73 -36 26 -72 27 -101 3z m78 -58 c4 -49 -14 -114
-32 -114 -29 0 -35 69 -11 126 19 45 39 40 43 -12z"/>
<path d="M5164 8354 c-8 -43 2 -147 16 -174 6 -11 19 -20 29 -20 17 0 19 6 14
59 l-6 60 47 32 c25 18 46 38 46 45 0 18 -29 25 -52 13 -15 -8 -24 -7 -37 5
-29 27 -49 20 -57 -20z"/>
<path d="M5567 8372 c-63 -69 -41 -219 31 -210 31 4 42 28 13 28 -50 0 -51 89
0 115 19 10 29 23 29 38 0 45 -43 62 -73 29z"/>
<path d="M5666 8336 c-5 -49 6 -144 19 -167 4 -5 15 -9 25 -9 18 0 20 7 17 62
-2 60 -1 62 33 86 19 13 42 27 50 32 13 8 13 11 -3 27 -16 17 -20 17 -46 2
-26 -15 -29 -15 -40 2 -6 11 -20 19 -30 19 -15 0 -19 -10 -25 -54z"/>
<path d="M5838 8385 c-7 -7 19 -174 32 -202 7 -16 18 -23 39 -23 27 0 31 5 61
83 18 45 33 96 33 112 2 26 -2 30 -23 30 -20 0 -28 -8 -43 -50 -26 -71 -37
-78 -37 -24 0 54 -37 98 -62 74z"/>
<path d="M6037 8384 c-12 -12 -7 -168 6 -194 7 -14 20 -26 30 -28 16 -3 17 6
15 110 -3 105 -4 113 -23 116 -12 2 -24 0 -28 -4z"/>
<path d="M6166 8371 c-21 -23 -36 -74 -36 -122 0 -45 32 -89 65 -89 40 0 72
48 44 66 -7 4 -20 -4 -30 -17 -16 -22 -18 -22 -25 -6 -9 24 2 111 18 139 l13
23 3 -25 c6 -38 21 -48 38 -26 18 26 18 32 -6 56 -25 25 -62 26 -84 1z"/>
<path d="M6321 8369 c-11 -12 -24 -43 -30 -69 -19 -86 17 -150 75 -136 31 8
31 26 0 26 -16 0 -27 7 -31 21 -10 30 3 89 20 89 17 0 45 27 45 45 0 18 -28
45 -45 45 -8 0 -23 -10 -34 -21z"/>
<path d="M6453 8375 c-49 -34 -34 -103 27 -121 17 -5 31 -13 31 -19 0 -15 -42
-23 -68 -14 -19 7 -23 5 -23 -10 0 -25 31 -51 61 -51 87 0 93 105 8 140 -29
13 -30 14 -13 27 28 20 44 16 44 -13 0 -39 34 -28 38 13 5 52 -57 81 -105 48z"/>
<path d="M6922 8383 c-23 -9 -42 -62 -42 -118 0 -46 4 -60 25 -80 24 -24 57
-31 90 -19 26 10 46 61 48 121 2 50 -1 57 -28 79 -28 22 -63 29 -93 17z m68
-77 c0 -65 -14 -106 -35 -106 -24 0 -24 99 1 138 23 36 34 26 34 -32z"/>
<path d="M8118 8366 c-20 -11 -39 -30 -42 -42 -3 -12 -15 -24 -27 -27 -16 -4
-20 -12 -17 -34 2 -22 9 -29 33 -33 22 -4 43 -23 86 -79 32 -41 69 -81 84 -90
25 -15 27 -15 45 7 21 26 35 99 26 137 -10 40 -26 29 -26 -19 0 -27 -6 -48
-15 -56 -13 -11 -21 -8 -50 20 -40 39 -42 46 -15 53 21 5 36 47 26 72 -5 14
-9 14 -33 -2 -16 -10 -31 -22 -35 -27 -7 -11 -48 20 -48 36 0 5 11 13 24 17
24 10 36 29 36 61 0 28 -11 29 -52 6z"/>
<path d="M2745 8248 c-2 -7 -5 -22 -7 -32 -2 -11 -39 -45 -85 -78 -102 -73
-116 -93 -80 -124 27 -23 104 -39 137 -29 33 11 23 25 -18 25 -21 0 -47 7 -58
14 -18 14 -18 16 20 53 25 25 40 34 43 25 10 -25 35 -42 64 -42 16 0 29 2 29
4 0 11 -30 60 -41 67 -10 6 -7 13 12 28 31 26 36 26 43 -4 8 -31 40 -49 73
-40 23 5 24 8 10 23 -8 9 -18 27 -21 39 -4 13 -18 26 -32 29 -14 4 -24 13 -24
24 0 28 -56 43 -65 18z"/>
<path d="M7970 8195 c0 -28 4 -35 19 -35 40 0 91 -106 91 -188 0 -30 -2 -33
-16 -21 -9 7 -41 50 -71 96 -35 54 -62 85 -78 89 -33 8 -45 -2 -45 -36 0 -24
5 -29 28 -32 21 -2 39 -21 87 -91 84 -124 111 -134 122 -49 11 86 -36 256 -81
287 -37 26 -56 19 -56 -20z"/>
<path d="M6591 8206 c-8 -10 -6 -18 9 -31 22 -20 53 -13 48 11 -4 23 -44 36
-57 20z"/>
<path d="M7797 8063 c-4 -3 -7 -19 -7 -35 0 -21 5 -28 19 -28 23 0 58 -40 99
-112 57 -99 94 -122 100 -61 2 24 -1 33 -17 38 -12 3 -39 38 -62 78 -62 107
-106 147 -132 120z"/>
<path d="M2996 8008 c-2 -7 -7 -25 -10 -39 -4 -16 -33 -49 -80 -88 -75 -61
-97 -94 -78 -113 16 -16 62 -1 62 21 0 11 25 41 58 69 62 53 92 72 116 72 29
0 17 -27 -31 -71 -148 -138 -156 -151 -95 -157 26 -3 32 0 32 17 0 35 155 161
180 146 22 -13 6 -36 -70 -105 -88 -79 -108 -106 -92 -122 17 -17 56 0 72 31
8 16 47 56 87 90 83 70 96 96 63 123 -12 10 -33 18 -46 18 -18 0 -22 4 -17 16
8 22 -22 44 -58 44 -23 0 -28 5 -31 28 -2 21 -9 28 -31 30 -16 2 -29 -2 -31
-10z"/>
<path d="M7744 7986 c-3 -8 -24 -22 -47 -31 -57 -23 -77 -43 -77 -77 0 -32 5
-34 26 -13 30 30 52 18 85 -47 55 -109 78 -138 110 -138 27 0 29 3 29 36 0 28
-3 35 -15 30 -21 -8 -49 23 -85 94 -29 57 -30 62 -15 90 8 16 15 36 15 44 0
21 -19 30 -26 12z"/>
<path d="M7535 7844 c-14 -15 -25 -35 -25 -45 0 -15 -6 -17 -35 -12 -30 5 -35
3 -40 -20 -8 -32 0 -47 26 -47 15 0 31 -24 69 -104 57 -118 88 -144 103 -85 4
13 -1 26 -15 37 -11 9 -26 29 -33 43 -13 24 -12 26 19 40 l33 15 23 -42 c22
-42 43 -59 61 -48 15 9 10 56 -8 69 -10 7 -38 55 -63 106 -25 51 -55 99 -67
107 -20 13 -24 11 -48 -14z m55 -76 c25 -42 25 -58 0 -58 -11 0 -23 -7 -27
-16 -5 -14 -8 -12 -19 7 -17 30 -18 71 -2 87 18 18 27 15 48 -20z"/>
<path d="M3243 7823 c-8 -3 -11 -14 -7 -29 5 -19 -8 -38 -75 -108 -78 -81 -93
-107 -70 -121 19 -12 59 4 59 24 0 10 9 30 21 45 l21 27 27 -28 26 -28 -32
-38 c-47 -53 -41 -86 13 -73 16 4 24 13 24 27 0 12 33 55 80 104 47 49 80 92
80 104 0 26 -28 41 -75 41 -29 0 -36 3 -31 15 13 35 -19 55 -61 38z m95 -104
c2 -9 -8 -30 -22 -47 l-26 -30 -30 27 -29 26 27 23 c30 25 75 26 80 1z"/>
<path d="M7358 7715 c-10 -23 -8 -28 23 -54 34 -29 34 -29 38 -126 4 -124 -9
-123 -60 4 -20 51 -45 101 -55 112 -32 35 -64 20 -64 -32 0 -12 7 -19 20 -19
22 0 37 -25 75 -126 54 -144 93 -138 115 18 16 110 -6 215 -50 238 -26 14 -29
13 -42 -15z"/>
<path d="M3442 7699 c-14 -5 -23 -16 -21 -26 3 -34 -1 -42 -71 -122 -79 -92
-89 -124 -38 -119 25 2 33 9 39 32 9 33 48 78 60 70 17 -10 9 -41 -21 -80 -16
-21 -30 -47 -30 -56 0 -23 38 -32 73 -19 29 11 37 31 12 31 -22 0 -19 12 15
56 16 21 30 48 30 60 0 14 14 27 44 41 40 20 67 56 52 70 -11 11 -58 -9 -63
-27 -6 -21 -56 -45 -73 -35 -7 4 -2 17 15 37 26 31 34 83 13 91 -7 2 -23 1
-36 -4z"/>
<path d="M7147 7596 c-40 -18 -47 -32 -47 -102 0 -109 56 -224 109 -224 53 0
100 92 86 169 -10 60 -54 140 -85 156 -16 8 -30 15 -32 14 -2 0 -16 -6 -31
-13z m59 -81 c50 -50 71 -148 38 -176 -22 -18 -43 -3 -76 57 -34 61 -46 123
-27 135 23 14 39 10 65 -16z"/>
<path d="M3612 7591 c-8 -5 -11 -17 -7 -32 5 -20 -7 -43 -59 -113 -66 -88 -80
-128 -50 -140 42 -16 164 2 164 25 0 5 -24 8 -52 7 -48 -3 -53 -1 -56 18 -2
12 8 34 21 50 23 26 25 27 41 11 20 -19 57 -22 73 -6 8 8 4 17 -12 35 -12 13
-27 24 -34 24 -16 0 -14 8 8 36 l18 23 23 -24 c26 -28 41 -30 72 -14 20 11 19
12 -13 45 -18 19 -43 34 -55 34 -12 0 -24 7 -28 15 -6 16 -33 20 -54 6z"/>
<path d="M6961 7501 c-10 -10 -23 -26 -28 -36 -9 -15 -13 -15 -31 -4 -17 10
-23 10 -36 0 -23 -19 -20 -55 6 -66 22 -10 26 -19 63 -157 18 -67 40 -95 61
-77 15 13 19 59 5 59 -11 0 -26 38 -46 117 -17 70 -8 113 24 113 21 0 41 -44
62 -140 18 -86 41 -119 66 -98 17 14 16 48 -2 68 -8 9 -24 54 -36 100 -34 137
-61 168 -108 121z"/>
<path d="M3963 7429 c-16 -6 -23 -17 -23 -35 0 -15 -9 -42 -21 -60 -11 -19
-19 -46 -17 -61 3 -26 6 -28 49 -28 l47 0 -20 -28 c-40 -55 -107 -61 -101 -8
3 26 -28 29 -51 5 -26 -25 -20 -60 13 -73 85 -36 207 55 256 191 9 27 14 52
11 55 -12 12 -61 -12 -64 -32 -6 -33 -51 -85 -67 -79 -21 8 -19 19 12 81 24
46 25 55 13 67 -11 10 -22 11 -37 5z"/>
<path d="M6744 7396 c-23 -29 -30 -32 -46 -23 -13 9 -23 9 -36 1 -22 -14 -29
-54 -8 -54 23 0 34 -28 56 -136 11 -54 27 -105 35 -113 15 -15 18 -14 31 3 16
22 19 56 5 56 -12 0 -21 27 -36 108 -14 73 -10 109 15 122 25 14 38 -6 51 -76
29 -153 65 -213 89 -150 8 21 6 30 -10 46 -11 11 -20 23 -20 28 0 4 -7 45 -15
91 -23 133 -58 164 -111 97z"/>
<path d="M6548 7324 c-11 -23 -9 -28 11 -43 18 -14 25 -35 37 -116 9 -55 23
-111 31 -123 14 -23 15 -23 34 -6 19 17 26 54 10 54 -14 0 -21 27 -37 129 -14
93 -32 131 -61 131 -7 0 -19 -12 -25 -26z"/>
<path d="M4162 7315 c-67 -57 -130 -180 -118 -230 24 -95 197 -16 239 110 31
90 16 130 -55 141 -27 5 -40 1 -66 -21z m68 -50 c13 -33 -13 -117 -49 -157
-56 -62 -94 -3 -56 88 36 88 86 120 105 69z"/>
<path d="M4363 7290 c-17 -7 -23 -17 -23 -42 0 -18 -18 -70 -41 -115 -50 -104
-51 -146 -2 -151 18 -2 41 2 53 8 17 9 20 8 20 -9 0 -27 14 -33 45 -19 20 9
25 17 21 33 -3 13 12 57 39 115 48 102 54 130 30 150 -20 16 -74 -15 -56 -33
17 -17 13 -37 -18 -102 -32 -68 -72 -110 -95 -102 -24 9 -19 46 15 112 41 80
59 132 53 150 -7 17 -10 17 -41 5z"/>
<path d="M6342 7267 c-8 -9 -10 -35 -6 -73 6 -66 -5 -95 -29 -76 -8 7 -18 33
-22 59 -9 63 -14 73 -36 73 -27 0 -44 -37 -26 -58 8 -9 17 -39 21 -66 10 -81
38 -97 88 -49 l28 27 0 -40 c0 -22 -7 -50 -16 -62 -19 -28 -54 -29 -61 -2 -10
40 -43 12 -43 -37 0 -27 5 -34 26 -39 40 -10 75 16 107 76 22 44 27 66 26 124
-1 112 -28 178 -57 143z"/>
<path d="M4550 7225 c-10 -12 -10 -19 -2 -27 18 -18 15 -32 -19 -116 -45 -112
-49 -128 -35 -148 20 -27 56 1 56 44 0 42 45 150 76 182 22 23 25 23 41 8 14
-14 15 -22 5 -43 -7 -14 -20 -25 -31 -25 -10 0 -29 -9 -42 -19 -24 -19 -24
-20 -5 -34 18 -14 19 -18 7 -70 -14 -56 -10 -77 13 -77 21 0 39 27 42 63 7 77
18 114 45 145 67 76 35 137 -55 102 -21 -8 -26 -6 -31 10 -8 24 -47 27 -65 5z"/>
<path d="M6061 7206 c-8 -10 -22 -13 -41 -10 -22 5 -31 1 -40 -16 -10 -18 -8
-25 9 -41 18 -17 21 -32 21 -102 0 -83 13 -151 30 -162 27 -17 113 54 133 108
10 27 -8 20 -48 -20 -36 -36 -38 -36 -51 -18 -8 10 -14 36 -14 57 0 36 2 38
24 32 24 -6 66 23 66 45 0 11 -55 22 -75 15 -12 -5 -15 2 -15 28 0 33 2 34 30
30 20 -3 37 2 50 13 27 24 25 45 -2 45 -13 0 -32 3 -44 6 -12 3 -26 -1 -33
-10z"/>
<path d="M5867 7166 c-30 -21 -38 -22 -48 -10 -16 19 -33 18 -54 -6 -18 -20
-18 -21 4 -41 22 -21 23 -26 16 -133 -6 -97 -5 -114 9 -126 15 -12 20 -10 38
8 19 19 20 24 8 46 -16 31 -9 173 11 204 19 30 47 28 55 -4 4 -14 3 -65 0
-114 -8 -101 -3 -130 24 -130 26 0 45 36 29 56 -8 10 -10 43 -5 117 11 155 -9
185 -87 133z"/>
<path d="M4958 7159 c-26 -14 -22 -25 13 -39 24 -10 29 -17 24 -34 -3 -12 -12
-51 -20 -87 -8 -37 -18 -74 -21 -83 -9 -24 -28 -14 -32 17 -4 33 -12 34 -40 4
-47 -50 -12 -100 51 -73 48 20 76 64 93 148 8 40 24 86 35 101 12 16 19 29 17
31 -11 7 -77 26 -89 26 -8 0 -22 -5 -31 -11z"/>
<path d="M5154 7125 c-60 -64 -94 -222 -58 -273 40 -57 150 15 184 122 15 47
9 142 -11 160 -8 8 -29 16 -48 20 -29 5 -38 2 -67 -29z m64 -37 c31 -39 20
-159 -18 -193 -45 -41 -77 12 -61 100 14 76 28 105 50 105 10 0 23 -6 29 -12z"/>
<path d="M5555 7140 c-17 -19 -17 -21 0 -53 15 -29 16 -41 6 -104 -15 -96 -14
-138 3 -152 19 -16 64 25 47 42 -10 10 -16 107 -6 107 2 0 16 -5 30 -12 24
-11 26 -17 22 -52 -5 -49 7 -86 27 -86 27 0 34 32 26 113 -6 67 -5 83 13 118
15 31 18 47 11 68 -12 34 -56 40 -94 13 -26 -20 -27 -20 -38 -1 -15 24 -24 24
-47 -1z m125 -45 c17 -20 6 -46 -35 -78 l-35 -28 0 26 c0 37 26 95 43 95 8 0
20 -7 27 -15z"/>
<path d="M5338 7134 c-13 -13 -14 -22 -6 -40 8 -17 6 -46 -7 -111 -19 -102
-17 -141 8 -157 14 -9 26 -6 55 10 l38 20 16 -20 16 -21 22 21 c18 18 20 25
11 42 -8 15 -7 41 5 102 20 107 16 164 -12 168 -11 2 -29 -7 -39 -18 -18 -20
-19 -22 -2 -31 32 -18 13 -159 -28 -207 -22 -26 -25 -26 -41 -10 -17 16 -17
22 0 115 10 54 17 109 15 123 -5 30 -28 37 -51 14z"/>
</g>
</svg>
